<svg xmlns="http://www.w3.org/2000/svg" xmlns:xlink="http://www.w3.org/1999/xlink" version="1.1" x="0px" y="0px" width="30px" height="30px" viewBox="0 0 30 30" enable-background="new 0 0 30 30" xml:space="preserve"><style>.style0{fill:	#006666;}</style><path d="M14.405 17.765c-0.143-0.745-0.453-1.355-0.931-1.833c-0.478-0.478-1.013-0.716-1.604-0.716 c-0.41 0-0.936 0.186-1.576 0.559c-0.22 0.143-0.444 0.286-0.674 0.431c-0.229 0.143-0.458 0.286-0.687 0.4 c-0.229 0.144-0.459 0.287-0.688 0.43c-1.176 0.707-2.125 1.185-2.851 1.434c-0.439 0.2-0.922 0.3-1.447 0.3 c-1.099 0-1.982-0.475-2.65-1.426c-0.668-0.949-1.056-2.265-1.16-3.946c0.276-0.411 0.57-0.735 0.881-0.974 c0.311-0.239 0.694-0.454 1.153-0.645c0.449 0.3 0.8 0.6 1.1 0.959c0.296 0.4 0.6 0.8 0.8 1.4 c-0.419-0.096-0.764-0.143-1.031-0.143c-0.487 0-0.878 0.128-1.174 0.386c-0.297 0.258-0.444 0.597-0.444 1 c0 0.4 0.2 0.8 0.5 1.125c0.334 0.3 0.7 0.5 1.2 0.466c0.449 0 0.998-0.137 1.647-0.409 c0.649-0.271 1.489-0.723 2.521-1.354c1.452-0.878 2.412-1.43 2.881-1.655c0.467-0.224 0.888-0.336 1.26-0.336 c0.63 0 1.3 0.2 1.9 0.716c0.635 0.5 1.1 1.1 1.5 1.833h0.271c0.563-0.898 1.11-1.542 1.641-1.934 c0.53-0.391 1.115-0.587 1.755-0.587c0.478 0 0.9 0.1 1.4 0.337c0.443 0.2 1.4 0.8 2.8 1.7 c1.863 1.1 3.2 1.7 4.1 1.677c0.516 0 0.938-0.146 1.268-0.438c0.329-0.291 0.493-0.656 0.493-1.095 c0-0.44-0.143-0.793-0.429-1.061c-0.287-0.267-0.663-0.401-1.132-0.401c-0.286 0-0.649 0.067-1.088 0.2 c0.39-0.879 0.997-1.653 1.819-2.321c0.467 0.1 0.9 0.3 1.2 0.595c0.343 0.3 0.6 0.6 0.9 1.024v0.2 c0 0.936-0.169 1.803-0.509 2.6c-0.339 0.798-0.805 1.431-1.396 1.898s-1.237 0.702-1.934 0.702c-0.506 0-1.045-0.129-1.619-0.387 c-0.764-0.345-1.634-0.803-2.607-1.376c-0.086-0.057-0.372-0.233-0.859-0.529c-0.486-0.296-0.907-0.55-1.261-0.76 c-0.524-0.315-1.04-0.473-1.547-0.473c-0.592 0-1.12 0.227-1.583 0.681s-0.766 1.048-0.909 1.783c0.182 0 0.4 0 0.5 0 c0.162 0 0.3 0 0.5 0.007c1.137 0 2.297-0.081 3.481-0.244c0.076 0.3 0.1 0.6 0.1 0.8 c0 0.277-0.038 0.573-0.114 0.889c-1.031-0.182-2.545-0.329-4.541-0.444c0.057 0.7 0.3 1.4 0.7 1.9 c0.41 0.5 0.9 0.8 1.4 0.752c0.631 0 1.256-0.338 1.877-1.017c0.038 0.5 0.1 0.8 0.1 0.9 c0 0.611-0.096 1.257-0.287 1.935c-0.716 0.258-1.351 0.387-1.905 0.387c-0.066-0.01-0.129-0.017-0.186-0.021 c-0.058-0.006-0.153-0.009-0.287-0.009c-0.783-0.821-1.418-1.694-1.905-2.621h-0.271c-0.507 0.954-1.18 1.829-2.021 2.621h-0.415 c-0.583 0-1.188-0.118-1.819-0.357c-0.21-0.592-0.315-1.246-0.315-1.962c0-0.144 0.02-0.426 0.058-0.846 c0.373 0.4 0.7 0.6 1 0.78c0.277 0.2 0.6 0.2 0.9 0.236c0.563 0 1.051-0.238 1.461-0.716 c0.411-0.478 0.659-1.108 0.745-1.892c-0.572 0.02-1.325 0.071-2.256 0.158c-0.931 0.086-1.697 0.181-2.3 0.3 c-0.076-0.344-0.114-0.64-0.114-0.889c0-0.267 0.038-0.539 0.114-0.816C10.938 17.7 12.5 17.8 14.4 17.765z M17.156 9.8 c-0.956 0.926-1.676 1.905-2.163 2.936c-0.2-0.534-0.479-1.033-0.839-1.497c-0.357-0.463-0.813-0.943-1.367-1.439 c0.572-0.545 1.028-1.077 1.367-1.598c0.34-0.521 0.619-1.129 0.839-1.827c0.229 0.7 0.5 1.3 0.8 1.7 C16.101 8.7 16.6 9.2 17.2 9.843z" class="style0"/></svg>