<?xml version="1.0" encoding="utf-8"?>
<!-- Generator: Adobe Illustrator 15.1.0, SVG Export Plug-In . SVG Version: 6.00 Build 0)  -->
<!DOCTYPE svg PUBLIC "-//W3C//DTD SVG 1.1//EN" "http://www.w3.org/Graphics/SVG/1.1/DTD/svg11.dtd">
<svg version="1.1" id="Layer_1" xmlns="http://www.w3.org/2000/svg" xmlns:xlink="http://www.w3.org/1999/xlink" x="0px" y="0px"
	 width="91.803px" height="24.857px" viewBox="0 0 91.803 24.857" enable-background="new 0 0 91.803 24.857" xml:space="preserve">
<path fill="#006666" d="M56.306,12.488c0.049-2.818,0.55-5.118,1.505-6.901c0.159-0.286,0.238-0.518,0.238-0.69
	c0-0.255-0.127-0.383-0.381-0.383c-0.398,0-0.956,0.484-1.671,1.455c-0.733,0.974-1.312,2.197-1.731,3.68
	c-0.422,1.479-0.642,3.009-0.658,4.6c-2.101,1.497-4.152,3.191-6.158,5.087c1.319,1.5,2.5,3,3.6,4.466l-1.266,1.074
	c-1.053-1.323-2.325-2.688-3.821-4.105c-0.604,0.523-1.298,1.21-2.077,2.054s-1.369,1.527-1.768,2.054l-1.242-1.074
	c1.084-1.495,2.276-2.982,3.582-4.466c-2.102-1.94-4.171-3.637-6.207-5.087c0-1.56-0.212-3.083-0.634-4.572
	c-0.424-1.486-0.999-2.718-1.731-3.688c-0.7-0.971-1.266-1.457-1.694-1.457c-0.237,0-0.357,0.128-0.357,0.383c0,0.2,0.1,0.4,0.3,0.7
	c0.908,1.8,1.399,4.1,1.5,6.901c-1.035-0.701-3.367-1.99-6.996-3.869c-0.938-2.068-2.325-3.766-4.155-5.086
	c-0.522-0.397-0.932-0.599-1.218-0.599c-0.223,0-0.334,0.12-0.334,0.358c0,0.2,0.1,0.3,0.3,0.5c1.051,1.1,1.8,2.3,2.102,3.771
	c-1.595-0.523-3.188-0.936-4.788-1.229c-1.602-0.294-3.084-0.441-4.454-0.441c-0.397,0-0.598,0.138-0.598,0.406
	c0,0.2,0.199,0.3,0.5,0.382c1.593,0.3,2.801,0.602,3.699,0.8c0.868,0.2,1.801,0.5,2.7,0.824c0.916,0.3,1.9,0.7,2.9,1.185
	c2.166,1,4,2.1,5.6,3.198c-1.4,1.448-3.208,2.332-5.421,2.649c-0.461,0.096-0.692,0.223-0.692,0.383c0,0.3,0.302,0.5,0.802,0.602
	c0.532,0.198,1.198,0.3,1.898,0.251c1.114,0,2.201-0.199,3.26-0.601c1.061-0.396,1.898-0.93,2.521-1.599
	c0.62,0.398,1.2,0.8,1.7,1.276c0.494,0.399,1.1,1,1.699,1.756c-2.275,1.064-4.688,1.601-7.234,1.6c-3.47,0-6.812-1.06-10.028-3.177
	c0.859-0.159,1.531-0.469,2.019-0.934c0.484-0.461,0.729-1.019,0.729-1.671c0-0.669-0.264-1.312-0.788-1.935
	c-0.523-0.621-1.237-1.162-2.138-1.623c-0.899-0.462-1.962-0.828-3.188-1.099c-1.225-0.271-2.514-0.405-3.865-0.405
	c-1.736,0-3.315,0.227-4.74,0.68c-1.426,0.454-2.547,1.066-3.367,1.8c-0.82,0.771-1.229,1.62-1.229,2.543
	c0,0.602,0.199,1.102,0.5,1.42c0.312,0.4,0.699,0.5,1.199,0.5c0.414,0,0.771-0.143,1.074-0.43c0.62,0.4,0.9,1,0.9,1.814
	c0,0.621-0.26,1.156-0.775,1.6C5.13,18.7,4.5,18.9,3.8,18.888c-1.051,0-1.95-0.428-2.698-1.278C0.374,16.8,0,15.7,0,14.5
	c0-1.353,0.43-2.596,1.289-3.726c0.858-1.13,2.081-2.073,3.665-2.829C6.539,7.2,8.4,6.7,10.5,6.5
	c1.672-1.83,3.423-3.175,5.254-4.035c1.83-0.857,3.845-1.289,6.041-1.289c1.831,0,4,0.4,6.5,1.102c0.255,0.1,0.5,0.1,0.7,0.143
	c0.254,0,0.381-0.108,0.381-0.333c0-0.287-0.127-0.611-0.381-0.979c-0.255-0.367-0.565-0.693-0.935-0.98C29.147,0,29.7,0,29.6,0
	c0.924,0,1.9,0.102,2.8,0.2c0.933,0.2,1.802,0.4,2.7,0.645c0.877,0.302,1.7,0.602,2.5,1.027c3.486,1.8,5.2,4.3,5.2,7.5
	c0,1.624-0.47,2.93-1.41,3.917c0.367,0.3,1.8,1.8,4.4,4.346c1.56-1.64,3.033-3.088,4.418-4.346
	c-0.924-0.973-1.385-2.274-1.385-3.917c0-3.168,1.727-5.667,5.182-7.497c0.875-0.444,1.738-0.797,2.591-1.051
	c0.854-0.255,1.742-0.462,2.675-0.621C60.33,0.1,61.2,0,62.2,0c0.062,0,0.198,0,0.5,0C62.986,0,63.4,0.1,63.8,0.083
	c-0.431,0.353-0.766,0.696-1.004,1.04c-0.237,0.342-0.358,0.648-0.358,0.9c0,0.2,0.102,0.3,0.4,0.333
	c0.159,0,0.392-0.047,0.691-0.145c2.483-0.748,4.635-1.122,6.446-1.122c2.196,0,4.2,0.4,6.102,1.304
	c1.854,0.898,3.6,2.198,5.198,4.021c2.069,0.3,3.9,0.8,5.5,1.5c1.602,0.8,2.802,1.7,3.7,2.817c0.866,1.1,1.3,2.398,1.3,3.735
	c0,1.194-0.367,2.218-1.108,3.102c-0.738,0.853-1.634,1.278-2.688,1.278c-0.716,0-1.329-0.229-1.839-0.684
	c-0.508-0.453-0.764-0.99-0.764-1.608c0-0.893,0.311-1.496,0.932-1.815c0.287,0.3,0.602,0.4,1,0.43c0.51,0,0.925-0.184,1.243-0.55
	c0.319-0.365,0.477-0.835,0.477-1.407c0-0.938-0.412-1.792-1.238-2.556c-0.828-0.765-1.955-1.373-3.378-1.827
	c-1.427-0.453-2.998-0.68-4.719-0.68c-1.734,0-3.387,0.229-4.956,0.69c-1.565,0.461-2.807,1.082-3.712,1.9
	c-0.906,0.78-1.36,1.615-1.36,2.507c0,0.7,0.3,1.2,0.8,1.659c0.503,0.5,1.2,0.8,2,0.9c-3.217,2.115-6.552,3.177-10.007,3.177
	c-2.563,0-4.966-0.534-7.211-1.603c0.638-0.731,1.188-1.306,1.657-1.719c0.473-0.414,1.049-0.853,1.732-1.312
	c0.62,0.698,1.5,1.198,2.5,1.599c1.042,0.4,2.1,0.6,3.2,0.6c1.083,0,1.854-0.118,2.314-0.357c0.287-0.145,0.432-0.318,0.432-0.524
	c0-0.16-0.23-0.287-0.692-0.383c-2.147-0.303-3.938-1.186-5.372-2.649c1.608-1.146,3.486-2.204,5.635-3.176
	c0.987-0.462,1.946-0.854,2.88-1.183c0.932-0.327,1.816-0.599,2.66-0.812c0.846-0.214,2.062-0.479,3.653-0.8
	c0.35-0.079,0.526-0.206,0.526-0.382c0-0.27-0.179-0.406-0.526-0.406c-1.354,0-2.826,0.147-4.418,0.441
	c-1.591,0.295-3.215,0.705-4.871,1.229c0.43-1.465,1.146-2.723,2.15-3.771c0.222-0.225,0.333-0.398,0.333-0.525
	c0-0.236-0.127-0.356-0.381-0.356c-0.227,0-0.64,0.197-1.241,0.6c-0.896,0.653-1.683,1.393-2.365,2.222
	c-0.684,0.827-1.28,1.782-1.791,2.864c-2.659,1.401-4.281,2.262-4.871,2.602C57.819,11.5,57.1,11.9,56.3,12.488H56.306z"/>
</svg>
