<svg xmlns="http://www.w3.org/2000/svg" xmlns:xlink="http://www.w3.org/1999/xlink" version="1.1" x="0px" y="0px" viewBox="0 0 86 57" enable-background="new 0 0 86 57" xml:space="preserve"><g><path d="M57.671 0.871c-4.016 0-7.82 0.88-11.266 2.426c2.599 1.9 4.9 4.1 6.8 6.7 c1.433-0.347 2.925-0.551 4.464-0.551c10.512 0 19.1 8.6 19.1 19.062c0 10.512-8.551 19.062-19.062 19.1 c-10.511 0-19.062-8.55-19.062-19.062c0-3.31 0.851-6.425 2.341-9.139c-1.701-2.361-4.035-4.23-6.763-5.345 c-2.61 4.218-4.145 9.169-4.145 14.484c0 15.2 12.4 27.6 27.6 27.629C72.904 56.1 85.3 43.7 85.3 28.5 C85.3 13.3 72.9 0.9 57.7 0.871z" class="rings-icon"/><path d="M32.799 47.01c-1.437 0.348-2.929 0.552-4.47 0.552c-10.512 0-19.062-8.55-19.062-19.062 c0-10.511 8.55-19.062 19.062-19.062S47.391 18 47.4 28.5c0 3.3-0.844 6.405-2.326 9.1 c1.697 2.4 4 4.2 6.8 5.327c2.597-4.21 4.123-9.146 4.123-14.443c0-15.235-12.394-27.629-27.629-27.629 S0.7 13.3 0.7 28.5c0 15.2 12.4 27.6 27.6 27.629c4.016 0 7.822-0.88 11.268-2.426C37 51.8 34.7 49.6 32.8 47 z" class="rings-icon"/></g></svg>