<svg xmlns="http://www.w3.org/2000/svg" xmlns:xlink="http://www.w3.org/1999/xlink" version="1.1" x="0px" y="0px" width="190.723px" height="30px" viewBox="0 0 190.723 30" enable-background="new 0 0 190.723 30" xml:space="preserve"><style>.style0{fill:	#276866;}</style><path d="M128.834 14.229l61.889 0.585v0.426l-61.889 0.427c-0.285 2.27-1.223 4.142-2.822 5.6 c-1.594 1.472-3.492 2.207-5.691 2.207c-2.66 0-5.057-0.904-7.186-2.713c-2.447 1.881-4.947 2.82-7.504 2.8 c-2.375 0-4.629-0.834-6.758-2.501c-2.057 1.667-4.452 2.501-7.183 2.501c-1.739 0-3.495-0.479-5.269-1.437 c-1.773-0.959-3.334-2.324-4.683-4.099c-1.277 1.703-2.838 3.052-4.683 4.045c-1.844 0.993-3.725 1.49-5.641 1.5 c-2.413 0-4.532-0.755-6.36-2.262c-1.827-1.508-2.917-3.397-3.272-5.667L0 15.239v-0.426l61.783-0.585 c0.284-2.27 1.269-4.143 2.953-5.614c1.686-1.472 3.646-2.209 5.88-2.209c2.377 0 4.8 0.9 7.2 2.8 c1.384-1.063 2.545-1.801 3.486-2.208c0.94-0.407 2.031-0.612 3.272-0.612c2.483 0 4.8 0.9 6.9 2.8 c2.483-1.88 5.021-2.82 7.609-2.82c3.371 0 6.7 1.8 10.1 5.534c3.334-3.689 6.688-5.534 10.057-5.534 c2.555 0 4.7 0.7 6.5 2.182C127.477 10 128.5 11.9 128.8 14.229z M78.492 14.1 c-2.979-4.045-5.96-6.068-8.939-6.068c-1.774 0-3.291 0.568-4.55 1.704c-1.26 1.135-1.996 2.625-2.208 4.47L78.492 14.123z M62.901 15.666c0.319 1.7 1.3 3.1 3 4.283c1.685 1.2 3.6 1.7 5.8 1.729c1.667 0 3.406-0.416 5.215-1.251 c1.809-0.834 3.228-1.835 4.257-3.007c-0.107-0.105-0.337-0.371-0.692-0.797c-0.355-0.427-0.604-0.675-0.746-0.746L62.901 15.666z M92.116 14.123c-1.845-2.308-3.406-3.896-4.683-4.764c-1.277-0.869-2.66-1.305-4.15-1.305c-1.596 0-3.228 0.568-4.896 1.7 c1.349 1.1 2.8 2.6 4.5 4.364H92.116z M84.24 15.878c1.667 2.1 3.2 3.6 4.7 4.6 c1.455 1 2.9 1.4 4.5 1.438c1.809 0 3.424-0.445 4.842-1.332c-1.418-1.17-2.962-2.73-4.629-4.683H84.24z M106.483 14.1 c-1.949-2.236-3.59-3.788-4.922-4.658c-1.33-0.868-2.775-1.303-4.338-1.303c-1.666 0-3.369 0.497-5.107 1.5 c1.525 1.4 2.3 2.2 2.4 2.288c0.568 0.6 1 1 1.3 1.438c0.319 0.4 0.5 0.6 0.5 0.639L106.483 14.123z M112.604 20.243c-1.561-1.136-3.051-2.591-4.471-4.365l-10.057 0.107c1.844 2.1 3.5 3.7 4.9 4.6 c1.402 0.9 2.8 1.4 4.2 1.41C108.577 22 110.4 21.4 112.6 20.243z M127.877 14.2 c-0.355-1.774-1.322-3.193-2.902-4.258c-1.576-1.063-3.449-1.597-5.613-1.597c-3.406 0-6.635 1.385-9.686 4.2 c0.215 0.2 0.4 0.5 0.5 0.612c0.143 0.2 0.4 0.5 0.9 0.985L127.877 14.229z M127.983 15.666l-15.486 0.2 c2.096 2.5 3.7 4.1 4.8 4.923c1.137 0.8 2.5 1.2 4 1.197c1.811 0 3.318-0.585 4.523-1.755 C127.061 19.1 127.8 17.5 128 15.666z" class="style0"/></svg>